<mxfile host="app.diagrams.net" agent="Mozilla/5.0 (Windows NT 10.0; Win64; x64) AppleWebKit/537.36 (KHTML, like Gecko) Chrome/137.0.0.0 Safari/537.36" version="27.1.6">
  <diagram name="Сторінка-1" id="ytLEhvGYOJ3w0qEwgIKS">
    <mxGraphModel dx="1123" dy="710" grid="1" gridSize="10" guides="1" tooltips="1" connect="1" arrows="1" fold="1" page="1" pageScale="1" pageWidth="1169" pageHeight="827" math="0" shadow="0">
      <root>
        <mxCell id="0" />
        <mxCell id="1" parent="0" />
        <mxCell id="3pbHyQOfJEhkmRudi0SX-48" value="Система" style="swimlane;horizontal=0;whiteSpace=wrap;html=1;" vertex="1" parent="1">
          <mxGeometry x="120" y="80" width="910" height="160" as="geometry" />
        </mxCell>
        <mxCell id="3pbHyQOfJEhkmRudi0SX-51" value="Система отримує&amp;nbsp;&lt;div&gt;через API ставки&amp;nbsp;&lt;/div&gt;&lt;div&gt;перевізника&lt;/div&gt;" style="points=[[0.145,0.145,0],[0.5,0,0],[0.855,0.145,0],[1,0.5,0],[0.855,0.855,0],[0.5,1,0],[0.145,0.855,0],[0,0.5,0]];shape=mxgraph.bpmn.event;html=1;verticalLabelPosition=bottom;labelBackgroundColor=#ffffff;verticalAlign=top;align=center;perimeter=ellipsePerimeter;outlineConnect=0;aspect=fixed;outline=standard;symbol=general;" vertex="1" parent="3pbHyQOfJEhkmRudi0SX-48">
          <mxGeometry x="70" y="30" width="50" height="50" as="geometry" />
        </mxCell>
        <mxCell id="3pbHyQOfJEhkmRudi0SX-52" value="Порівнює з Business Rules" style="points=[[0.25,0,0],[0.5,0,0],[0.75,0,0],[1,0.25,0],[1,0.5,0],[1,0.75,0],[0.75,1,0],[0.5,1,0],[0.25,1,0],[0,0.75,0],[0,0.5,0],[0,0.25,0]];shape=mxgraph.bpmn.task2;whiteSpace=wrap;rectStyle=rounded;size=10;html=1;container=1;expand=0;collapsible=0;taskMarker=abstract;" vertex="1" parent="3pbHyQOfJEhkmRudi0SX-48">
          <mxGeometry x="190" y="27.5" width="110" height="55" as="geometry" />
        </mxCell>
        <mxCell id="3pbHyQOfJEhkmRudi0SX-53" style="edgeStyle=orthogonalEdgeStyle;rounded=0;orthogonalLoop=1;jettySize=auto;html=1;entryX=0;entryY=0.5;entryDx=0;entryDy=0;entryPerimeter=0;" edge="1" parent="3pbHyQOfJEhkmRudi0SX-48" source="3pbHyQOfJEhkmRudi0SX-51" target="3pbHyQOfJEhkmRudi0SX-52">
          <mxGeometry relative="1" as="geometry" />
        </mxCell>
        <mxCell id="3pbHyQOfJEhkmRudi0SX-58" style="edgeStyle=orthogonalEdgeStyle;rounded=0;orthogonalLoop=1;jettySize=auto;html=1;" edge="1" parent="3pbHyQOfJEhkmRudi0SX-48" source="3pbHyQOfJEhkmRudi0SX-54" target="3pbHyQOfJEhkmRudi0SX-57">
          <mxGeometry relative="1" as="geometry" />
        </mxCell>
        <mxCell id="3pbHyQOfJEhkmRudi0SX-59" value="Так" style="edgeLabel;html=1;align=center;verticalAlign=middle;resizable=0;points=[];" vertex="1" connectable="0" parent="3pbHyQOfJEhkmRudi0SX-58">
          <mxGeometry x="0.1059" y="-4" relative="1" as="geometry">
            <mxPoint as="offset" />
          </mxGeometry>
        </mxCell>
        <mxCell id="3pbHyQOfJEhkmRudi0SX-54" value="Умови виконано?" style="points=[[0.25,0.25,0],[0.5,0,0],[0.75,0.25,0],[1,0.5,0],[0.75,0.75,0],[0.5,1,0],[0.25,0.75,0],[0,0.5,0]];shape=mxgraph.bpmn.gateway2;html=1;verticalLabelPosition=bottom;labelBackgroundColor=#ffffff;verticalAlign=top;align=center;perimeter=rhombusPerimeter;outlineConnect=0;outline=none;symbol=none;gwType=exclusive;" vertex="1" parent="3pbHyQOfJEhkmRudi0SX-48">
          <mxGeometry x="370" y="30" width="50" height="50" as="geometry" />
        </mxCell>
        <mxCell id="3pbHyQOfJEhkmRudi0SX-55" style="edgeStyle=orthogonalEdgeStyle;rounded=0;orthogonalLoop=1;jettySize=auto;html=1;entryX=0;entryY=0.5;entryDx=0;entryDy=0;entryPerimeter=0;" edge="1" parent="3pbHyQOfJEhkmRudi0SX-48" source="3pbHyQOfJEhkmRudi0SX-52" target="3pbHyQOfJEhkmRudi0SX-54">
          <mxGeometry relative="1" as="geometry" />
        </mxCell>
        <mxCell id="3pbHyQOfJEhkmRudi0SX-57" value="Погодження та&amp;nbsp;&lt;div&gt;підписання угоди&lt;/div&gt;" style="points=[[0.145,0.145,0],[0.5,0,0],[0.855,0.145,0],[1,0.5,0],[0.855,0.855,0],[0.5,1,0],[0.145,0.855,0],[0,0.5,0]];shape=mxgraph.bpmn.event;html=1;verticalLabelPosition=bottom;labelBackgroundColor=#ffffff;verticalAlign=top;align=center;perimeter=ellipsePerimeter;outlineConnect=0;aspect=fixed;outline=end;symbol=terminate2;" vertex="1" parent="3pbHyQOfJEhkmRudi0SX-48">
          <mxGeometry x="680" y="30" width="50" height="50" as="geometry" />
        </mxCell>
        <mxCell id="3pbHyQOfJEhkmRudi0SX-50" value="Логіст" style="swimlane;horizontal=0;whiteSpace=wrap;html=1;" vertex="1" parent="1">
          <mxGeometry x="120" y="240" width="910" height="160" as="geometry" />
        </mxCell>
        <mxCell id="3pbHyQOfJEhkmRudi0SX-61" value="Переадресація на&amp;nbsp;&lt;div&gt;ручний розгляд&lt;/div&gt;" style="points=[[0.145,0.145,0],[0.5,0,0],[0.855,0.145,0],[1,0.5,0],[0.855,0.855,0],[0.5,1,0],[0.145,0.855,0],[0,0.5,0]];shape=mxgraph.bpmn.event;html=1;verticalLabelPosition=bottom;labelBackgroundColor=#ffffff;verticalAlign=top;align=center;perimeter=ellipsePerimeter;outlineConnect=0;aspect=fixed;outline=standard;symbol=message;" vertex="1" parent="3pbHyQOfJEhkmRudi0SX-50">
          <mxGeometry x="370" y="40" width="50" height="50" as="geometry" />
        </mxCell>
        <mxCell id="3pbHyQOfJEhkmRudi0SX-65" value="Переглядає тариф та приймає рішення" style="points=[[0.25,0,0],[0.5,0,0],[0.75,0,0],[1,0.25,0],[1,0.5,0],[1,0.75,0],[0.75,1,0],[0.5,1,0],[0.25,1,0],[0,0.75,0],[0,0.5,0],[0,0.25,0]];shape=mxgraph.bpmn.task2;whiteSpace=wrap;rectStyle=rounded;size=10;html=1;container=1;expand=0;collapsible=0;taskMarker=abstract;" vertex="1" parent="3pbHyQOfJEhkmRudi0SX-50">
          <mxGeometry x="490" y="37.5" width="120" height="55" as="geometry" />
        </mxCell>
        <mxCell id="3pbHyQOfJEhkmRudi0SX-66" style="edgeStyle=orthogonalEdgeStyle;rounded=0;orthogonalLoop=1;jettySize=auto;html=1;entryX=0;entryY=0.5;entryDx=0;entryDy=0;entryPerimeter=0;" edge="1" parent="3pbHyQOfJEhkmRudi0SX-50" source="3pbHyQOfJEhkmRudi0SX-61" target="3pbHyQOfJEhkmRudi0SX-65">
          <mxGeometry relative="1" as="geometry" />
        </mxCell>
        <mxCell id="3pbHyQOfJEhkmRudi0SX-67" value="" style="points=[[0.25,0.25,0],[0.5,0,0],[0.75,0.25,0],[1,0.5,0],[0.75,0.75,0],[0.5,1,0],[0.25,0.75,0],[0,0.5,0]];shape=mxgraph.bpmn.gateway2;html=1;verticalLabelPosition=bottom;labelBackgroundColor=#ffffff;verticalAlign=top;align=center;perimeter=rhombusPerimeter;outlineConnect=0;outline=none;symbol=none;gwType=exclusive;" vertex="1" parent="3pbHyQOfJEhkmRudi0SX-50">
          <mxGeometry x="680" y="40" width="50" height="50" as="geometry" />
        </mxCell>
        <mxCell id="3pbHyQOfJEhkmRudi0SX-69" style="edgeStyle=orthogonalEdgeStyle;rounded=0;orthogonalLoop=1;jettySize=auto;html=1;entryX=0;entryY=0.5;entryDx=0;entryDy=0;entryPerimeter=0;" edge="1" parent="3pbHyQOfJEhkmRudi0SX-50" source="3pbHyQOfJEhkmRudi0SX-65" target="3pbHyQOfJEhkmRudi0SX-67">
          <mxGeometry relative="1" as="geometry" />
        </mxCell>
        <mxCell id="3pbHyQOfJEhkmRudi0SX-73" value="Відхилення та зберігання&amp;nbsp;&lt;div&gt;рішення в лог&lt;/div&gt;" style="points=[[0.145,0.145,0],[0.5,0,0],[0.855,0.145,0],[1,0.5,0],[0.855,0.855,0],[0.5,1,0],[0.145,0.855,0],[0,0.5,0]];shape=mxgraph.bpmn.event;html=1;verticalLabelPosition=bottom;labelBackgroundColor=#ffffff;verticalAlign=top;align=center;perimeter=ellipsePerimeter;outlineConnect=0;aspect=fixed;outline=end;symbol=terminate2;" vertex="1" parent="3pbHyQOfJEhkmRudi0SX-50">
          <mxGeometry x="800" y="40" width="50" height="50" as="geometry" />
        </mxCell>
        <mxCell id="3pbHyQOfJEhkmRudi0SX-74" style="edgeStyle=orthogonalEdgeStyle;rounded=0;orthogonalLoop=1;jettySize=auto;html=1;entryX=0;entryY=0.5;entryDx=0;entryDy=0;entryPerimeter=0;" edge="1" parent="3pbHyQOfJEhkmRudi0SX-50" source="3pbHyQOfJEhkmRudi0SX-67" target="3pbHyQOfJEhkmRudi0SX-73">
          <mxGeometry relative="1" as="geometry" />
        </mxCell>
        <mxCell id="3pbHyQOfJEhkmRudi0SX-62" style="edgeStyle=orthogonalEdgeStyle;rounded=0;orthogonalLoop=1;jettySize=auto;html=1;entryX=0.5;entryY=0;entryDx=0;entryDy=0;entryPerimeter=0;" edge="1" parent="1" source="3pbHyQOfJEhkmRudi0SX-54" target="3pbHyQOfJEhkmRudi0SX-61">
          <mxGeometry relative="1" as="geometry" />
        </mxCell>
        <mxCell id="3pbHyQOfJEhkmRudi0SX-63" value="Ні" style="edgeLabel;html=1;align=center;verticalAlign=middle;resizable=0;points=[];" vertex="1" connectable="0" parent="3pbHyQOfJEhkmRudi0SX-62">
          <mxGeometry x="-0.2" y="-2" relative="1" as="geometry">
            <mxPoint as="offset" />
          </mxGeometry>
        </mxCell>
        <mxCell id="3pbHyQOfJEhkmRudi0SX-68" style="edgeStyle=orthogonalEdgeStyle;rounded=0;orthogonalLoop=1;jettySize=auto;html=1;" edge="1" parent="1" source="3pbHyQOfJEhkmRudi0SX-67" target="3pbHyQOfJEhkmRudi0SX-57">
          <mxGeometry relative="1" as="geometry" />
        </mxCell>
        <mxCell id="3pbHyQOfJEhkmRudi0SX-72" value="Позитивне&lt;div&gt;&amp;nbsp;рішення&lt;/div&gt;" style="edgeLabel;html=1;align=center;verticalAlign=middle;resizable=0;points=[];" vertex="1" connectable="0" parent="3pbHyQOfJEhkmRudi0SX-68">
          <mxGeometry x="-0.0333" y="1" relative="1" as="geometry">
            <mxPoint as="offset" />
          </mxGeometry>
        </mxCell>
      </root>
    </mxGraphModel>
  </diagram>
</mxfile>
